<svg width="77" height="60" viewBox="0 0 77 60" fill="none" xmlns="http://www.w3.org/2000/svg">
<mask id="path-1-inside-1_157_226" fill="white">
<path fill-rule="evenodd" clip-rule="evenodd" d="M36.3692 34.7795C45.9733 34.7795 53.7589 26.9938 53.7589 17.3897C53.7589 7.78565 45.9733 0 36.3692 0C26.7651 0 18.9794 7.78565 18.9794 17.3897C18.9794 26.9938 26.7651 34.7795 36.3692 34.7795ZM38.4726 37.8032C18.5488 37.8032 2.14061 47.1462 0 59.1585H76.9452C74.8046 47.1462 58.3965 37.8032 38.4726 37.8032Z"/>
</mask>
<path d="M0 59.1585L-2.95347 58.6322L-3.58186 62.1585H0V59.1585ZM76.9452 59.1585V62.1585H80.5271L79.8987 58.6322L76.9452 59.1585ZM50.7589 17.3897C50.7589 25.337 44.3164 31.7795 36.3692 31.7795V37.7795C47.6301 37.7795 56.7589 28.6507 56.7589 17.3897H50.7589ZM36.3692 3C44.3164 3 50.7589 9.44251 50.7589 17.3897H56.7589C56.7589 6.1288 47.6301 -3 36.3692 -3V3ZM21.9794 17.3897C21.9794 9.44251 28.4219 3 36.3692 3V-3C25.1082 -3 15.9794 6.1288 15.9794 17.3897H21.9794ZM36.3692 31.7795C28.4219 31.7795 21.9794 25.337 21.9794 17.3897H15.9794C15.9794 28.6507 25.1082 37.7795 36.3692 37.7795V31.7795ZM2.95347 59.6848C3.80978 54.8795 7.62583 50.1779 14.0321 46.5945C20.3873 43.0397 28.9534 40.8032 38.4726 40.8032V34.8032C28.068 34.8032 18.4681 37.2383 11.1031 41.358C3.78916 45.4491 -1.66917 51.4252 -2.95347 58.6322L2.95347 59.6848ZM76.9452 56.1585H0V62.1585H76.9452V56.1585ZM38.4726 40.8032C47.9919 40.8032 56.558 43.0397 62.9131 46.5945C69.3194 50.1779 73.1355 54.8795 73.9918 59.6848L79.8987 58.6322C78.6144 51.4252 73.1561 45.4491 65.8422 41.358C58.4771 37.2383 48.8772 34.8032 38.4726 34.8032V40.8032Z" fill="black" mask="url(#path-1-inside-1_157_226)"/>
</svg>
